<svg width="1004.25" height="104.25" viewBox="0 0 5356 556" fill="none" xmlns="http://www.w3.org/2000/svg"
        xmlns:xlink="http://www.w3.org/1999/xlink" version="1.1">
        <g transform="translate(0, 0)">
            <svg t="1710920536386" class="icon" viewBox="0 0 1024 1024" version="1.1" xmlns="http://www.w3.org/2000/svg"
                p-id="79808" width="256" height="256">
                <path
                    d="M512 512zM128.3 64.3l69.8 805.8 313.4 89.5L825.8 870l69.9-805.7H128.3z m580.9 669.3l-197.1 56.2-196.8-56.5L301.9 578h96.4l6.9 79.1 107.1 30.3 0.3 0.5h0.1l106.9-29.7L630.7 530H406.1l-8-99.9h241.1l8.8-101.9H280.2l-8-97.9H753l-43.8 503.3z"
                    fill="#264DE4" p-id="79809"></path>
            </svg>
        </g>
<g transform="translate(300, 0)">
            <svg xmlns="http://www.w3.org/2000/svg" width="256" height="256" fill="none" viewBox="0 0 256 256">
                <rect width="256" height="256" fill="#E14E1D" rx="60" />
                <path fill="#fff"
                    d="M48 38L56.6098 134.593H167.32L163.605 176.023L127.959 185.661L92.38 176.037L90.0012 149.435H57.9389L62.5236 200.716L127.951 218.888L193.461 200.716L202.244 102.655H85.8241L82.901 69.9448H205.041H205.139L208 38H48Z" />
                <path fill="#EBEBEB" d="M128 38H48L56.6098 134.593H128V102.655H85.8241L82.901 69.9448H128V38Z" />
                <path fill="#EBEBEB"
                    d="M128 185.647L127.959 185.661L92.38 176.037L90.0012 149.435H57.9388L62.5236 200.716L127.951 218.888L128 218.874V185.647Z" />
            </svg>
        </g>
<g transform="translate(600, 0)">
            <svg xmlns="http://www.w3.org/2000/svg" width="256" height="256" fill="none" viewBox="0 0 256 256">
                <rect width="256" height="256" fill="#F03C2E" rx="60" />
                <g clip-path="url(#clip0_7_283)">
                    <path fill="#fff"
                        d="M224.225 119.094L136.906 31.775C135.711 30.5787 134.291 29.6298 132.729 28.9824C131.166 28.3349 129.491 28.0017 127.8 28.0017C126.109 28.0017 124.434 28.3349 122.871 28.9824C121.309 29.6298 119.889 30.5787 118.694 31.775L100.569 49.9L123.569 72.9C128.919 71.025 135.044 72.3062 139.306 76.5687C141.335 78.6014 142.752 81.1638 143.394 83.9632C144.036 86.7626 143.878 89.6862 142.937 92.4L165.106 114.569C170.469 112.719 176.656 113.912 180.937 118.206C182.361 119.63 183.49 121.32 184.26 123.18C185.03 125.04 185.426 127.033 185.426 129.046C185.425 131.059 185.029 133.052 184.258 134.912C183.487 136.771 182.358 138.461 180.934 139.884C179.511 141.308 177.821 142.436 175.961 143.206C174.101 143.977 172.108 144.373 170.095 144.372C168.082 144.372 166.088 143.975 164.229 143.205C162.369 142.434 160.679 141.305 159.256 139.881C154.756 135.381 153.644 128.756 155.919 123.212L135.244 102.537V156.944C136.745 157.686 138.116 158.666 139.306 159.844C140.729 161.267 141.858 162.956 142.629 164.816C143.399 166.675 143.795 168.668 143.795 170.681C143.795 172.694 143.399 174.687 142.629 176.546C141.858 178.406 140.729 180.096 139.306 181.519C137.883 182.942 136.193 184.071 134.334 184.841C132.474 185.611 130.481 186.008 128.469 186.008C126.456 186.008 124.463 185.611 122.604 184.841C120.744 184.071 119.054 182.942 117.631 181.519C116.206 180.096 115.076 178.407 114.305 176.548C113.533 174.688 113.136 172.694 113.136 170.681C113.136 168.668 113.533 166.675 114.305 164.815C115.076 162.955 116.206 161.266 117.631 159.844C119.112 158.369 120.756 157.25 122.65 156.5V101.587C120.825 100.837 119.112 99.7312 117.631 98.2437C115.479 96.0943 114.016 93.3526 113.428 90.3684C112.841 87.3841 113.155 84.2924 114.331 81.4875L91.6437 58.8125L31.7687 118.625C30.5716 119.821 29.6219 121.241 28.9739 122.804C28.3259 124.367 27.9924 126.042 27.9924 127.734C27.9924 129.426 28.3259 131.102 28.9739 132.665C29.6219 134.228 30.5716 135.648 31.7687 136.844L119.094 224.156C120.289 225.352 121.709 226.301 123.271 226.949C124.834 227.596 126.509 227.929 128.2 227.929C129.891 227.929 131.566 227.596 133.129 226.949C134.691 226.301 136.111 225.352 137.306 224.156L224.225 137.375C225.422 136.179 226.372 134.759 227.02 133.196C227.668 131.633 228.001 129.958 228.001 128.266C228.001 126.574 227.668 124.898 227.02 123.335C226.372 121.772 225.422 120.352 224.225 119.156" />
                </g>
<defs>
                    <clipPath id="clip0_7_283">
                        <rect width="200" height="200" fill="#fff" transform="translate(28 28)" />
                    </clipPath>
                </defs>
            </svg>
        </g>

<g transform="translate(900, 0)">
            <svg width="256" height="256" viewBox="0 0 256 256" fill="none" xmlns="http://www.w3.org/2000/svg">
                <rect width="256" height="256" rx="60" fill="#242938" />
                <path
                    d="M128.001 30C72.7791 30 28 74.7708 28 130.001C28 174.184 56.6533 211.668 96.3867 224.891C101.384 225.817 103.219 222.722 103.219 220.081C103.219 217.696 103.126 209.819 103.083 201.463C75.2631 207.512 69.3927 189.664 69.3927 189.664C64.8437 178.105 58.2894 175.032 58.2894 175.032C49.2163 168.825 58.9733 168.953 58.9733 168.953C69.0151 169.658 74.3026 179.258 74.3026 179.258C83.2217 194.546 97.6965 190.126 103.403 187.571C104.301 181.107 106.892 176.696 109.752 174.199C87.5405 171.67 64.1913 163.095 64.1913 124.778C64.1913 113.86 68.0977 104.939 74.4947 97.9362C73.4564 95.4175 70.0335 85.2465 75.4635 71.4722C75.4635 71.4722 83.8609 68.7845 102.971 81.7226C110.948 79.5069 119.502 78.3958 128.001 78.3577C136.499 78.3958 145.061 79.5069 153.052 81.7226C172.139 68.7845 180.525 71.4722 180.525 71.4722C185.968 85.2465 182.544 95.4175 181.505 97.9362C187.917 104.939 191.797 113.86 191.797 124.778C191.797 163.187 168.403 171.644 146.135 174.119C149.722 177.223 152.918 183.308 152.918 192.638C152.918 206.018 152.802 216.787 152.802 220.081C152.802 222.742 154.602 225.86 159.671 224.878C199.383 211.64 228 174.169 228 130.001C228 74.7708 183.227 30 128.001 30ZM65.4536 172.453C65.2333 172.95 64.4517 173.099 63.7396 172.758C63.0143 172.432 62.6069 171.754 62.8421 171.256C63.0574 170.744 63.8406 170.602 64.5643 170.945C65.2913 171.271 65.7053 171.955 65.4536 172.453ZM70.3725 176.842C69.8956 177.285 68.9633 177.079 68.3307 176.38C67.6766 175.683 67.554 174.751 68.0376 174.302C68.5294 173.86 69.4336 174.067 70.0893 174.764C70.7434 175.47 70.8709 176.395 70.3725 176.842ZM73.7471 182.458C73.1344 182.884 72.1325 182.485 71.5132 181.595C70.9004 180.706 70.9004 179.64 71.5264 179.212C72.1474 178.785 73.1344 179.169 73.762 180.052C74.373 180.956 74.373 182.023 73.7471 182.458ZM79.4542 188.962C78.9061 189.566 77.7386 189.404 76.8841 188.579C76.0098 187.773 75.7663 186.629 76.3161 186.024C76.8709 185.418 78.045 185.589 78.9061 186.407C79.7738 187.211 80.0387 188.364 79.4542 188.962ZM86.8301 191.157C86.5883 191.941 85.4639 192.297 84.3312 191.964C83.2002 191.621 82.46 190.704 82.6885 189.912C82.9237 189.124 84.053 188.753 85.194 189.109C86.3234 189.45 87.0652 190.361 86.8301 191.157ZM95.2242 192.089C95.2523 192.913 94.2919 193.597 93.1029 193.612C91.9073 193.639 90.9402 192.971 90.9269 192.16C90.9269 191.327 91.8659 190.65 93.0615 190.63C94.2505 190.607 95.2242 191.269 95.2242 192.089ZM103.47 191.773C103.613 192.577 102.787 193.404 101.606 193.624C100.445 193.836 99.3702 193.339 99.2229 192.541C99.0788 191.716 99.92 190.89 101.079 190.676C102.262 190.471 103.32 190.955 103.47 191.773Z"
                    fill="white" />
            </svg>

        </g>

<g transform="translate(1200, 0)">
            <svg width="256" height="256" viewBox="0 0 256 256" fill="none" xmlns="http://www.w3.org/2000/svg">
                <rect width="256" height="256" rx="60" fill="#F0DB4F" />
                <path
                    d="M67.3117 213.932L86.9027 202.076C90.6821 208.777 94.1202 214.447 102.367 214.447C110.272 214.447 115.256 211.355 115.256 199.327V117.529H139.314V199.667C139.314 224.584 124.708 235.926 103.398 235.926C84.1533 235.926 72.9819 225.959 67.3113 213.93"
                    fill="#323330" />
                <path
                    d="M152.381 211.354L171.969 200.013C177.126 208.434 183.828 214.62 195.684 214.62C205.653 214.62 212.009 209.636 212.009 202.762C212.009 194.514 205.479 191.592 194.481 186.782L188.468 184.203C171.111 176.815 159.597 167.535 159.597 147.945C159.597 129.901 173.345 116.153 194.826 116.153C210.12 116.153 221.118 121.481 229.022 135.4L210.291 147.429C206.166 140.04 201.7 137.119 194.826 137.119C187.78 137.119 183.312 141.587 183.312 147.429C183.312 154.646 187.78 157.568 198.09 162.037L204.104 164.614C224.553 173.379 236.067 182.313 236.067 202.418C236.067 224.072 219.055 235.928 196.2 235.928C173.861 235.928 159.426 225.274 152.381 211.354"
                    fill="#323330" />
            </svg>
        </g>

<g transform="translate(1500, 0)">
            <svg xmlns="http://www.w3.org/2000/svg" width="256" height="256" fill="none" viewBox="0 0 256 256">
                <rect width="256" height="256" fill="#007ACC" rx="60" />
                <path fill="#fff"
                    d="M56.6112 128.849L56.5299 139.333H73.1902H89.8505L89.8505 186.673V234.012H101.635H113.419V186.673L113.419 139.333H130.079H146.739V129.052C146.739 123.363 146.618 118.609 146.455 118.487C146.333 118.325 126.056 118.243 101.472 118.284L56.7331 118.406L56.6112 128.849Z" />
                <path fill="#fff"
                    d="M206.567 118.108C213.068 119.734 218.026 122.619 222.577 127.332C224.934 129.852 228.428 134.444 228.713 135.541C228.794 135.866 217.66 143.343 210.915 147.528C210.671 147.691 209.695 146.634 208.598 145.009C205.307 140.214 201.853 138.141 196.57 137.776C188.809 137.247 183.811 141.311 183.852 148.097C183.852 150.088 184.136 151.266 184.949 152.892C186.655 156.427 189.825 158.54 199.781 162.847C218.107 170.731 225.949 175.932 230.826 183.327C236.271 191.576 237.49 204.742 233.792 214.535C229.729 225.181 219.651 232.414 205.469 234.812C201.081 235.584 190.678 235.462 185.965 234.609C175.684 232.78 165.932 227.701 159.918 221.037C157.561 218.436 152.969 211.65 153.254 211.162C153.375 211 154.432 210.35 155.61 209.659C156.748 209.009 161.056 206.53 165.119 204.173L172.474 199.906L174.018 202.182C176.172 205.473 180.885 209.984 183.73 211.487C191.897 215.795 203.113 215.185 208.639 210.228C210.996 208.074 211.971 205.839 211.971 202.548C211.971 199.581 211.605 198.281 210.061 196.046C208.07 193.202 204.007 190.804 192.466 185.806C179.26 180.117 173.571 176.582 168.37 170.974C165.363 167.724 162.518 162.522 161.34 158.174C160.365 154.558 160.121 145.496 160.893 141.839C163.615 129.08 173.246 120.181 187.143 117.539C191.654 116.686 202.137 117.011 206.567 118.108Z" />
            </svg>
        </g>

<g transform="translate(1800, 0)">
            <svg xmlns="http://www.w3.org/2000/svg" width="256" height="256" fill="none" viewBox="0 0 256 256">
                <rect width="256" height="256" fill="#242938" rx="60" />
                <path fill="url(#paint0_linear_159_762)"
                    d="M78.5714 184L30.2856 145.714L54.2856 101.143L123.143 128L78.5714 184Z" />
                <path fill="url(#paint1_linear_159_762)"
                    d="M228 81.4285L224.286 197.143L147.429 228L101.143 198.286L168.857 128L139.143 63.1428L165.714 31.1428L228 81.4285Z" />
                <path fill="url(#paint2_linear_159_762)"
                    d="M228 81.4285L167.143 153.429L139.143 63.1428L165.714 31.1428L228 81.4285Z" />
                <path fill="url(#paint3_linear_159_762)"
                    d="M124.286 194L44 223.143L56.8571 178L73.7143 122.571L28 107.143L56.8571 28L119.714 35.7143L181.429 106.286L124.286 194Z" />
                <path fill="#000" d="M190.571 66.5715H67.1428V190H190.571V66.5715Z" />
                <path fill="#fff" d="M124.857 166.857H78.5713V174.571H124.857V166.857Z" />
                <path fill="#fff"
                    d="M112 92.0001V82.5715H86.2856V92.0001H93.7142V124.286H86.2856V133.714H112V124.286H104.857V92.0001H112Z" />
                <path fill="#fff"
                    d="M136.571 134.572C132.571 134.572 129.143 133.714 126.571 132.286C124 130.857 121.714 128.857 120 126.857L127.143 118.857C128.571 120.572 130 121.714 131.429 122.572C132.857 123.429 134.571 124 136.286 124C138.286 124 140 123.429 141.429 122C142.571 120.572 143.143 118.572 143.143 115.429V82.5715H154.571V116C154.571 119.143 154.286 121.714 153.429 124C152.571 126.286 151.429 128 149.714 129.714C148.286 131.143 146.286 132.572 144 133.143C141.714 134 139.429 134.572 136.571 134.572Z" />
                <defs>
                    <linearGradient id="paint0_linear_159_762" x1="30.256" x2="123.192" y1="142.541" y2="142.541"
                        gradientUnits="userSpaceOnUse">
                        <stop offset=".258" stop-color="#F97A12" />
                        <stop offset=".459" stop-color="#B07B58" />
                        <stop offset=".724" stop-color="#577BAE" />
                        <stop offset=".91" stop-color="#1E7CE5" />
                        <stop offset="1" stop-color="#087CFA" />
                    </linearGradient>
                    <linearGradient id="paint1_linear_159_762" x1="101.621" x2="254.926" y1="99.086" y2="183.914"
                        gradientUnits="userSpaceOnUse">
                        <stop stop-color="#F97A12" />
                        <stop offset=".072" stop-color="#CB7A3E" />
                        <stop offset=".154" stop-color="#9E7B6A" />
                        <stop offset=".242" stop-color="#757B91" />
                        <stop offset=".334" stop-color="#537BB1" />
                        <stop offset=".432" stop-color="#387CCC" />
                        <stop offset=".538" stop-color="#237CE0" />
                        <stop offset=".655" stop-color="#147CEF" />
                        <stop offset=".792" stop-color="#0B7CF7" />
                        <stop offset="1" stop-color="#087CFA" />
                    </linearGradient>
                    <linearGradient id="paint2_linear_159_762" x1="208.651" x2="165.972" y1="150.615" y2="23.088"
                        gradientUnits="userSpaceOnUse">
                        <stop stop-color="#FE315D" />
                        <stop offset=".078" stop-color="#CB417E" />
                        <stop offset=".16" stop-color="#9E4E9B" />
                        <stop offset=".247" stop-color="#755BB4" />
                        <stop offset=".339" stop-color="#5365CA" />
                        <stop offset=".436" stop-color="#386DDB" />
                        <stop offset=".541" stop-color="#2374E9" />
                        <stop offset=".658" stop-color="#1478F3" />
                        <stop offset=".794" stop-color="#0B7BF8" />
                        <stop offset="1" stop-color="#087CFA" />
                    </linearGradient>
                    <linearGradient id="paint3_linear_159_762" x1="58.63" x2="186.639" y1="75.066" y2="286.8"
                        gradientUnits="userSpaceOnUse">
                        <stop stop-color="#FE315D" />
                        <stop offset=".04" stop-color="#F63462" />
                        <stop offset=".104" stop-color="#DF3A71" />
                        <stop offset=".167" stop-color="#C24383" />
                        <stop offset=".291" stop-color="#AD4A91" />
                        <stop offset=".55" stop-color="#755BB4" />
                        <stop offset=".917" stop-color="#1D76ED" />
                        <stop offset="1" stop-color="#087CFA" />
                    </linearGradient>
                </defs>
            </svg>
        </g>

<g transform="translate(2100, 0)">
            <svg xmlns="http://www.w3.org/2000/svg" width="256" height="256" fill="none" viewBox="0 0 256 256">
                <rect width="256" height="256" fill="#242938" rx="60" />
                <path fill="#41B883" d="M182 50H218L128 205.25L38 50H73.55H106.85L128 86L148.7 50H182Z" />
                <path fill="#41B883" d="M38 50L128 205.25L218 50H182L128 143.15L73.55 50H38Z" />
                <path fill="#fff" d="M73.55 50L128 143.6L182 50H148.7L128 86L106.85 50H73.55Z" />
            </svg>
        </g>

<g transform="translate(2400, 0)">
            <svg width="256" height="256" viewBox="0 0 256 256" fill="none" xmlns="http://www.w3.org/2000/svg">
                <rect width="256" height="256" rx="60" fill="#242938" />
                <path
                    d="M227.088 57.6016L133.256 225.389C131.318 228.854 126.341 228.874 124.375 225.427L28.6823 57.6177C26.54 53.861 29.7524 49.3105 34.0096 50.0715L127.942 66.8613C128.541 66.9684 129.155 66.9674 129.754 66.8582L221.722 50.0955C225.965 49.3222 229.192 53.8374 227.088 57.6016Z"
                    fill="url(#paint0_linear_307_179)" />
                <path
                    d="M172.687 28.0492L103.249 41.6554C102.107 41.879 101.262 42.8462 101.194 44.007L96.9221 116.148C96.8216 117.847 98.3821 119.166 100.04 118.783L119.373 114.322C121.182 113.905 122.816 115.498 122.445 117.317L116.701 145.443C116.314 147.336 118.092 148.954 119.94 148.393L131.881 144.765C133.732 144.203 135.511 145.826 135.119 147.721L125.991 191.9C125.42 194.664 129.096 196.171 130.629 193.801L131.653 192.219L188.235 79.2992C189.183 77.4085 187.549 75.2526 185.472 75.6534L165.573 79.494C163.703 79.8545 162.112 78.113 162.639 76.2834L175.628 31.2582C176.156 29.4255 174.559 27.6825 172.687 28.0492Z"
                    fill="url(#paint1_linear_307_179)" />
                <defs>
                    <linearGradient id="paint0_linear_307_179" x1="26.3459" y1="44.075" x2="143.127" y2="202.673"
                        gradientUnits="userSpaceOnUse">
                        <stop stop-color="#41D1FF" />
                        <stop offset="1" stop-color="#BD34FE" />
                    </linearGradient>
                    <linearGradient id="paint1_linear_307_179" x1="122.551" y1="31.7433" x2="143.676" y2="176.66"
                        gradientUnits="userSpaceOnUse">
                        <stop stop-color="#FFEA83" />
                        <stop offset="0.0833333" stop-color="#FFDD35" />
                        <stop offset="1" stop-color="#FFA800" />
                    </linearGradient>
                </defs>
            </svg>
        </g>

<g transform="translate(2700, 0)">
            <svg xmlns="http://www.w3.org/2000/svg" width="256" height="256" fill="none" viewBox="0 0 256 256">
                <rect width="256" height="256" fill="#242938" rx="60" />
                <path fill="#2489CA"
                    d="M33.7158 100.208C33.7158 100.208 28.9814 96.795 34.6627 92.2381L47.8994 80.402C47.8994 80.402 51.6869 76.4172 55.6915 79.8891L177.84 172.368V216.714C177.84 216.714 177.781 223.678 168.844 222.908L33.7158 100.208Z" />
                <path fill="#1070B3"
                    d="M65.1997 128.792L33.7157 157.415C33.7157 157.415 30.4805 159.822 33.7157 164.123L48.3333 177.418C48.3333 177.418 51.8052 181.147 56.9341 176.905L90.3119 151.596L65.1997 128.792Z" />
                <path fill="#0877B9"
                    d="M120.474 129.029L178.215 84.9391L177.84 40.83C177.84 40.83 175.374 31.2033 167.148 36.2139L90.312 106.145L120.474 129.029Z" />
                <path fill="#3C99D4"
                    d="M168.844 222.968C172.198 226.4 176.262 225.276 176.262 225.276L221.259 203.103C227.019 199.177 226.21 194.305 226.21 194.305V61.8982C226.21 56.0788 220.252 54.0667 220.252 54.0667L181.253 35.267C172.731 30 167.148 36.2139 167.148 36.2139C167.148 36.2139 174.328 31.0455 177.84 40.83V215.905C177.84 217.109 177.583 218.292 177.071 219.358C176.045 221.429 173.816 223.362 168.47 222.553L168.844 222.968Z" />
            </svg>
        </g>

<g transform="translate(3000, 0)">
            <svg xmlns="http://www.w3.org/2000/svg" width="256" height="256" fill="none" viewBox="0 0 256 256">
                <rect width="256" height="256" fill="#242938" rx="60" />
                <path fill="#00D8FF"
                    d="M128.001 146.951C138.305 146.951 146.657 138.598 146.657 128.295C146.657 117.992 138.305 109.639 128.001 109.639C117.698 109.639 109.345 117.992 109.345 128.295C109.345 138.598 117.698 146.951 128.001 146.951Z" />
                <path fill-rule="evenodd" stroke="#00D8FF" stroke-width="8.911"
                    d="M128.002 90.3633C153.05 90.3633 176.319 93.9575 193.864 99.9976C215.003 107.275 228 118.306 228 128.295C228 138.704 214.226 150.423 191.525 157.944C174.363 163.63 151.779 166.598 128.002 166.598C103.624 166.598 80.5389 163.812 63.1834 157.881C41.2255 150.376 28 138.506 28 128.295C28 118.387 40.4096 107.441 61.2515 100.175C78.8617 94.0353 102.705 90.3633 127.998 90.3633H128.002Z"
                    clip-rule="evenodd" />
                <path fill-rule="evenodd" stroke="#00D8FF" stroke-width="8.911"
                    d="M94.9811 109.438C107.495 87.7402 122.232 69.3783 136.23 57.1971C153.094 42.5206 169.144 36.7728 177.796 41.7623C186.813 46.9623 190.084 64.7496 185.259 88.1712C181.614 105.879 172.9 126.925 161.021 147.523C148.842 168.641 134.897 187.247 121.09 199.315C103.619 214.587 86.7284 220.114 77.8833 215.013C69.3003 210.067 66.0181 193.846 70.1356 172.161C73.6145 153.838 82.3451 131.349 94.977 109.438L94.9811 109.438Z"
                    clip-rule="evenodd" />
                <path fill-rule="evenodd" stroke="#00D8FF" stroke-width="8.911"
                    d="M95.0123 147.578C82.4633 125.904 73.9194 103.962 70.3531 85.7517C66.0602 63.8109 69.0954 47.0355 77.7401 42.0315C86.7485 36.8163 103.792 42.866 121.674 58.7437C135.194 70.7479 149.077 88.8052 160.99 109.383C173.204 130.481 182.358 151.856 185.919 169.844C190.425 192.608 186.778 210.001 177.941 215.116C169.367 220.08 153.676 214.825 136.945 200.427C122.809 188.263 107.685 169.468 95.0123 147.578Z"
                    clip-rule="evenodd" />
            </svg>
        </g>

<g transform="translate(3300, 0)">
            <svg t="1710921645552" class="icon" viewBox="0 0 1024 1024" version="1.1" xmlns="http://www.w3.org/2000/svg"
                p-id="84619" width="256" height="256">
                <path
                    d="M506.76224 179.92192c-2.10944 1.89952-4.3008 3.70688-6.30272 5.7088C406.12864 279.8848 311.82336 374.15424 217.4976 468.41344c-11.0336 11.0336-22.12864 22.01088-33.21856 32.98816-6.97856 6.91712-6.6048 13.7984 1.26976 21.6576 37.84192 37.8112 75.68896 75.61216 113.536 113.41824l201.86624 201.68192c8.24832 8.22784 14.35648 8.2176 22.65088-0.07168 40.85248-40.82176 81.70496-81.6384 122.53696-122.48064 19.46112-19.46112 45.40928-22.49216 66.46784-7.66976 23.99744 16.89088 28.07296 52.63872 7.50592 73.52832-40.18176 40.82176-80.88576 81.12128-121.39008 121.61024-15.73376 15.72864-31.4112 31.51872-47.28832 47.10912-22.87616 22.4512-56.11008 22.65088-78.74048 0.128-56.15616-55.86944-112.08192-111.96928-168.13568-167.94112a312823.92576 312823.92576 0 0 0-229.73952-229.23776c-13.07648-13.0304-19.55328-28.31872-17.87392-46.89408 1.14176-12.60544 6.1696-23.51616 14.976-32.39424a35948.48256 35948.48256 0 0 1 109.0304-109.21984c95.98976-95.89248 192.0512-191.72864 287.97952-287.69792 9.62048-9.62048 20.17792-16.96256 33.87904-19.18464 18.37056-2.98496 34.67264 1.65376 47.82592 14.56128 31.5392 30.94016 62.60736 62.37184 93.8496 93.61408 0.20992 0.21504 0.32256 0.5376 0.48128 0.81408-2.80064 1.21856-4.37248-1.0496-6.20544-2.30912-12.38528-8.56064-25.41056-15.70304-40.22272-19.21536-19.32288-4.58752-37.4784-1.23392-54.79424 7.8848-10.368 5.45792-19.584 12.55424-28.288 20.35712-2.70336 2.41152-5.632 4.53632-8.69376 6.47168z"
                    fill="#29CCFE" p-id="84620"></path>
                <path
                    d="M789.3248 336.04608c15.68256 0.0512 27.3408 4.98688 36.93568 14.5152 41.51296 41.2416 83.09248 82.432 124.35968 123.9296 22.08256 22.20544 22.34368 55.4496 0.32256 77.76768-40.99584 41.5488-82.35008 82.7392-123.84256 123.8016-13.9264 13.77792-31.08352 17.85856-49.792 11.96032-17.95584-5.66784-29.27104-18.35008-33.20832-36.77184-3.95776-18.5088 2.24768-34.05824 15.47264-47.22176 26.17344-26.03008 52.2496-52.16768 78.35648-78.26944 9.0112-9.0112 8.97536-14.94016-0.09728-24.00256-26.7776-26.76224-53.59616-53.49376-80.32768-80.31232-18.87744-18.92864-21.15072-45.37344-5.4272-66.14016 9.76384-12.8768 23.17312-19.01568 37.248-19.25632z"
                    fill="#F9806E" p-id="84621"></path>
                <path
                    d="M514.2528 406.12352c58.52672-0.12288 107.77088 46.89408 107.65824 107.7504-0.10752 60.75904-47.7696 107.72992-107.5712 107.9296-60.9792 0.20992-108.416-48.08192-108.3648-108.06784 0.05632-61.54752 50.25792-108.1344 108.27776-107.61216z"
                    fill="#F98D7D" p-id="84622"></path>
                <path
                    d="M506.76224 179.92192c18.60096-18.40128 39.03488-33.90464 65.8432-37.56544 15.41632-2.10432 30.33088 1.24416 44.41088 7.9616 8.38656 4.00384 16.41472 8.6016 23.86944 14.18752 1.21344 0.90112 2.3552 2.16576 4.08064 2.23744 24.51968 24.51456 49.17248 48.896 73.51296 73.58976 19.6608 19.93728 19.5072 50.2528 0.06656 69.62688-19.46624 19.38944-50.19136 19.3536-70.08256-0.43008A40343.72608 40343.72608 0 0 1 523.71968 184.832c-4.92544-4.95616-10.15808-7.2448-16.95744-4.91008z"
                    fill="#4284EA" p-id="84623"></path>
            </svg>
    </g>

<g transform="translate(3600, 0)">
        <svg t="1710921880528" class="icon" viewBox="0 0 1024 1024" version="1.1" xmlns="http://www.w3.org/2000/svg"
            p-id="87336" width="256" height="256">
            <path
                d="M954.391106 733.455997c-0.269471 42.495631-22.366122 51.954075-22.366122 51.954075s-380.897745 220.131141-405.662161 233.901127c-24.521892 10.53633-40.959644 0-40.959645 0S86.882008 788.15868 72.330555 777.99961c-14.551453-10.15907-14.901765-26.003985-14.901765-26.003985s0.404207-457.724025 0-478.93142c-0.404207-21.180448 26.057879-37.106204 26.057879-37.106204L481.711421 5.748632c24.521892-12.934625 48.370106 0 48.370106 0s351.821787 204.52875 390.787343 226.490665c38.237984 18.162369 33.522235 55.67278 33.522236 55.67278s0.215577 406.039421 0 445.54392z m-159.015041-459.421695a166166.674868 166166.674868 0 0 1-273.621202-158.233573s-18.755206-10.132123-37.99546 0L171.091803 295.942323s-20.776241 12.476523-20.479823 29.04901c0.323366 16.599435 0 374.83464 0 374.83464s0.269471 12.395682 11.695057 20.345087 324.362657 188.845518 324.362657 188.845517 12.88073 8.245823 32.147931 0c19.455831-10.778854 318.515129-183.051884 318.515129-183.051884s17.327007-7.410462 17.515637-40.690172c0.080841-9.566233 0.107789-46.807172 0.107789-93.560451L502.837974 805.054533v-81.62287c0-33.522235 25.95009-55.645833 25.950091-55.645833l311.454979-187.659844c11.748951-12.287893 14.174193-31.932354 14.659241-39.369763v-82.727703L502.837974 571.288142v-85.314628c0-33.549182 22.258333-48.235371 22.258333-48.23537l270.279758-163.730789z"
                fill="#409EFF" p-id="87337"></path>
        </svg>
    </g>

<g transform="translate(3900, 0)">
        <svg xmlns="http://www.w3.org/2000/svg" width="256" height="256" fill="none" viewBox="0 0 256 256">
            <rect width="256" height="256" fill="#242938" rx="60" />
            <path fill="#81CD39"
                d="M119.878 31.1164C124.797 28.3008 131.203 28.2883 136.117 31.1164C160.839 45.0855 185.569 59.0332 210.287 73.0108C214.937 75.6296 218.046 80.8038 217.999 86.1608V170.206C218.034 175.785 214.617 181.083 209.712 183.642C185.071 197.535 160.442 211.444 135.805 225.337C130.786 228.207 124.251 227.986 119.387 224.88C112 220.598 104.6 216.336 97.2121 212.058C95.7022 211.158 94.0004 210.442 92.9345 208.978C93.8766 207.708 95.5618 207.55 96.9309 206.995C100.014 206.014 102.847 204.44 105.679 202.913C106.396 202.423 107.27 202.611 107.957 203.049C114.274 206.671 120.536 210.399 126.874 213.986C128.226 214.767 129.595 213.73 130.751 213.086C154.931 199.419 179.141 185.805 203.318 172.134C204.214 171.703 204.709 170.752 204.636 169.771C204.653 142.046 204.64 114.317 204.645 86.5918C204.747 85.4785 204.103 84.455 203.096 83.999C178.541 70.1702 153.997 56.3205 129.446 42.4882C128.575 41.8893 127.426 41.8878 126.554 42.4837C102.002 56.3205 77.4638 70.1832 52.9124 84.011C51.9092 84.4675 51.236 85.4745 51.3554 86.5918C51.3596 114.317 51.3554 142.046 51.3554 169.775C51.2682 170.756 51.801 171.687 52.6906 172.109C59.2422 175.824 65.8024 179.513 72.3582 183.216C76.0516 185.203 80.5863 186.385 84.6555 184.862C88.2463 183.574 90.7633 179.909 90.6948 176.097C90.7288 148.534 90.6778 120.967 90.7203 93.4078C90.6309 92.1841 91.7912 91.1731 92.981 91.2885C96.1292 91.267 99.281 91.2461 102.429 91.297C103.743 91.267 104.647 92.5847 104.485 93.8174C104.472 121.555 104.519 149.293 104.464 177.03C104.472 184.423 101.435 192.467 94.5973 196.084C86.1737 200.447 75.7619 199.522 67.4399 195.338C60.2355 191.742 53.3603 187.498 46.2838 183.646C41.3661 181.101 37.966 175.782 38.0006 170.207V86.1608C37.949 80.6929 41.1825 75.4248 45.9764 72.8445C70.6133 58.9408 95.2461 45.0261 119.878 31.1164Z" />
            <path fill="#81CD39"
                d="M141.372 89.3351C152.117 88.6433 163.62 88.9255 173.289 94.2185C180.776 98.2754 184.926 106.789 185.058 115.106C184.849 116.227 183.676 116.846 182.605 116.769C179.488 116.765 176.369 116.812 173.252 116.748C171.929 116.799 171.161 115.58 170.995 114.411C170.099 110.431 167.928 106.49 164.183 104.57C158.433 101.692 151.767 101.837 145.497 101.897C140.92 102.139 135.998 102.536 132.12 105.227C129.143 107.266 128.239 111.382 129.301 114.697C130.303 117.077 133.05 117.845 135.299 118.553C148.248 121.94 161.97 121.602 174.672 126.059C179.931 127.876 185.075 131.409 186.875 136.915C189.23 144.295 188.198 153.115 182.947 159.039C178.689 163.914 172.488 166.568 166.303 168.009C158.075 169.844 149.536 169.891 141.18 169.076C133.323 168.18 125.146 166.116 119.081 160.763C113.894 156.259 111.361 149.241 111.612 142.469C111.672 141.325 112.811 140.527 113.907 140.621C117.046 140.596 120.186 140.587 123.325 140.626C124.58 140.536 125.509 141.62 125.574 142.802C126.152 146.593 127.577 150.573 130.884 152.82C137.264 156.937 145.271 156.655 152.577 156.77C158.63 156.502 165.425 156.421 170.364 152.42C172.97 150.138 173.742 146.32 173.038 143.036C172.275 140.263 169.374 138.971 166.883 138.126C154.1 134.083 140.224 135.55 127.565 130.977C122.425 129.161 117.455 125.727 115.481 120.447C112.726 112.974 113.988 103.73 119.789 98.0061C125.445 92.312 133.609 90.1192 141.372 89.3346V89.3351" />
        </svg>
    </g>

<g transform="translate(4200, 0)">
        <svg xmlns="http://www.w3.org/2000/svg" width="256" height="256" fill="none" viewBox="0 0 256 256">
            <rect width="256" height="256" fill="#001E36" rx="60" />
            <path fill="#31A8FF"
                d="M57.6001 178.04V68.2799C57.6001 67.5332 57.9201 67.1066 58.6668 67.1066C60.4801 67.1066 62.1868 67.1066 64.6401 66.9999C67.2001 66.8932 69.8668 66.8932 72.7468 66.7866C75.6268 66.6799 78.7201 66.6799 82.0268 66.5732C85.3334 66.4666 88.5334 66.4666 91.7334 66.4666C100.48 66.4666 107.733 67.5332 113.707 69.7732C119.04 71.5866 123.947 74.5732 128 78.5199C131.413 81.9332 134.08 86.0932 135.787 90.6799C137.387 95.1599 138.24 99.7466 138.24 104.547C138.24 113.72 136.107 121.293 131.84 127.267C127.573 133.24 121.6 137.72 114.667 140.28C107.413 142.947 99.4134 143.907 90.6668 143.907C88.1068 143.907 86.4001 143.907 85.3334 143.8C84.2668 143.693 82.7734 143.693 80.7468 143.693V177.933C80.8534 178.68 80.3201 179.32 79.5734 179.427C79.4668 179.427 79.3601 179.427 79.1468 179.427H58.8801C58.0268 179.427 57.6001 179 57.6001 178.04ZM80.8534 87.6932V123.533C82.3468 123.64 83.7334 123.747 85.0134 123.747H90.6668C94.8268 123.747 98.9868 123.107 102.933 121.827C106.347 120.867 109.333 118.84 111.68 116.173C113.92 113.507 114.987 109.88 114.987 105.187C115.093 101.88 114.24 98.5732 112.533 95.6932C110.72 92.9199 108.16 90.7866 105.067 89.6132C101.12 88.0132 96.8534 87.3732 92.4801 87.4799C89.7068 87.4799 87.2534 87.4799 85.2268 87.5866C83.0934 87.4799 81.6001 87.5866 80.8534 87.6932Z" />
            <path fill="#31A8FF"
                d="M204.8 117.027C201.6 115.32 198.187 114.147 194.56 113.4C190.613 112.547 186.667 112.013 182.613 112.013C180.48 111.907 178.24 112.227 176.213 112.76C174.827 113.08 173.653 113.827 172.907 114.893C172.373 115.747 172.053 116.813 172.053 117.773C172.053 118.733 172.48 119.693 173.12 120.547C174.08 121.72 175.36 122.68 176.747 123.427C179.2 124.707 181.76 125.88 184.32 126.947C190.08 128.867 195.627 131.533 200.747 134.733C204.267 136.973 207.147 139.96 209.173 143.587C210.88 147 211.733 150.733 211.627 154.573C211.733 159.587 210.24 164.6 207.467 168.76C204.48 173.027 200.32 176.333 195.52 178.253C190.293 180.493 183.893 181.667 176.213 181.667C171.307 181.667 166.507 181.24 161.707 180.28C157.973 179.64 154.24 178.467 150.827 176.867C150.08 176.44 149.547 175.693 149.653 174.84V156.28C149.653 155.96 149.76 155.533 150.08 155.32C150.4 155.107 150.72 155.213 151.04 155.427C155.2 157.88 159.573 159.587 164.267 160.653C168.32 161.72 172.587 162.253 176.853 162.253C180.907 162.253 183.787 161.72 185.707 160.76C187.413 160.013 188.587 158.2 188.587 156.28C188.587 154.787 187.733 153.4 186.027 152.013C184.32 150.627 180.8 149.027 175.573 147C170.133 145.08 165.12 142.52 160.427 139.32C157.12 136.973 154.347 133.88 152.32 130.253C150.613 126.84 149.76 123.107 149.867 119.373C149.867 114.787 151.147 110.413 153.493 106.467C156.16 102.2 160.107 98.7866 164.693 96.6532C169.707 94.0932 176 92.9199 183.573 92.9199C187.947 92.9199 192.427 93.2399 196.8 93.8799C200 94.3066 203.093 95.1599 205.973 96.3332C206.4 96.4399 206.827 96.8666 207.04 97.2932C207.147 97.7199 207.253 98.1466 207.253 98.5732V115.96C207.253 116.387 207.04 116.813 206.72 117.027C205.76 117.24 205.227 117.24 204.8 117.027Z" />
        </svg>
    </g>

    <!-- <g transform="translate(5100, 0)">
          <svg width="256" height="256" viewBox="0 0 256 256" fill="none" xmlns="http://www.w3.org/2000/svg">
<rect width="256" height="256" rx="60" fill="#242938"/>
<path d="M38 128.002C38 78.2952 78.2952 38 128.002 38C164.549 38 196.009 59.7838 210.105 91.0756L91.0756 210.105C85.968 207.804 81.1134 205.04 76.5654 201.867L150.431 128.002H128.002L64.361 191.643C48.0738 175.356 38 152.855 38 128.002Z" fill="white"/>
<path d="M218 128.031L128.029 218.002C177.711 217.986 217.983 177.714 218 128.031Z" fill="white"/>
</svg>

        </g> -->

<g transform="translate(0, 300)">
        <svg t="1513758984334" class="icon" style="" viewBox="0 0 1024 1024" version="1.1"
            xmlns="http://www.w3.org/2000/svg" p-id="699" xmlns:xlink="http://www.w3.org/1999/xlink" width="256"
            height="256">
            <defs>
                <style type="text/css"></style>
            </defs>
            <path
                d="M615.431638 10.989708c-7.33582 0-14.146795 1.570531-20.432923 3.669913 13.357523 8.906351 20.693343 20.697349 24.35925 34.058879 0.264426 1.834957 0.789272 3.145068 1.053698 4.980024 0.26042 1.570531 0.520839 3.141061 0.520839 4.715598 1.049691 23.053145-6.025709 25.937793-11.001727 39.559742-7.600246 17.556288-5.50487 36.418681 3.665907 51.615167 0.785265 1.834957 1.834957 3.930333 3.145067 5.769296-9.956042-66.290814 45.325032-76.242849 55.5455-96.944205 0.785265-18.077127-14.146795-30.128546-25.937793-38.514057-11.266153-6.810974-21.486621-8.910357-30.917818-8.910357z m83.31825 14.936066c-1.049691 6.025709-0.264426 4.451172-0.520839 7.59624-0.264426 2.095376-0.264426 4.715598-0.524846 6.810974-0.524846 2.099383-1.049691 4.194759-1.834956 6.290135-0.520839 2.095376-1.310111 4.190753-2.095377 6.290136-1.049691 2.095376-1.834957 3.926326-2.884648 6.025709-0.785265 1.045685-1.310111 2.095376-2.095376 3.141061l-1.570531 2.359802c-1.310111 1.834957-2.620222 3.665907-3.930332 5.240444-1.574537 1.570531-2.884648 3.405487-4.715599 4.715598v0.26042c-1.574537 1.310111-3.145068 2.884648-4.980024 4.194759-5.500863 4.190753-11.790999 7.331814-17.552282 11.266153-1.834957 1.310111-3.669913 2.355796-5.240444 3.926326-1.834957 1.314117-3.405487 2.620222-4.980024 4.194759-1.834957 1.570531-3.145068 3.145068-4.715598 4.976018-1.310111 1.574537-2.884648 3.405487-3.926327 5.240444-1.314117 1.834957-2.624228 3.669913-3.669913 5.50487-1.049691 2.095376-1.834957 3.926326-2.884648 6.025709-0.785265 2.095376-1.570531 3.926326-2.095376 6.025709a84.804645 84.804645 0 0 0-1.834957 6.550555c-0.26042 1.045685-0.26042 2.355796-0.520839 3.405487-0.264426 1.045685-0.264426 2.095376-0.524846 3.145068 0 2.095376-0.264426 4.451172-0.264426 6.546548 0 1.574537 0 3.145068 0.264426 4.719605 0 2.095376 0.26042 4.190753 0.785266 6.546548 0.264426 2.099383 0.785265 4.194759 1.310111 6.290136 0.785265 2.095376 1.310111 4.190753 2.095376 6.290135 0.524846 1.306105 1.310111 2.616215 1.834957 3.665907l-60.257092-23.317572c-10.220468-2.884648-20.17651-5.50487-30.396978-7.860666l-16.506597-3.930332a486.487873 486.487873 0 0 0-47.684834-7.075401c-0.520839 0-0.785265-0.26042-1.310111-0.26042a468.458823 468.458823 0 0 0-46.899569-2.359802c-11.526573 0-23.057152 0.520839-34.323305 1.310111-15.981751 1.049691-31.963502 3.145068-47.945253 5.76529-3.926326 0.520839-7.860666 1.310111-11.786993 2.095376-8.125092 1.570531-15.985758 3.405487-23.581997 5.240444l-11.790999 3.145067c-3.926326 1.570531-7.59624 3.405487-11.266153 4.976018l-8.645931 3.930333c-0.520839 0.264426-1.049691 0.264426-1.310111 0.520839-2.620222 1.314117-4.976018 2.363809-7.331814 3.669914-0.789272 0.264426-1.314117 0.524846-1.838963 0.789271-2.880642 1.310111-5.761283 2.880642-8.121085 4.190753-1.834957 0.785265-3.669913 1.834957-5.240444 2.620222-0.785265 0.520839-1.834957 1.049691-2.355796 1.310111-2.359802 1.310111-4.719605 2.620222-6.810974 3.926326-2.363809 1.314117-4.455179 2.624228-6.290136 3.93434-1.834957 1.310111-3.669913 2.355796-5.240443 3.665906-0.264426 0.264426-0.520839 0.264426-0.785266 0.52084-1.574537 1.053698-3.405487 2.363809-4.980024 3.669913l-0.520839 0.524846-3.930333 3.145067c-0.524846 0.26042-1.049691 0.785265-1.574537 1.049692-1.310111 1.045685-2.620222 2.355796-3.926327 3.405487-0.264426 0.520839-0.789272 0.785265-1.049691 1.045685-1.574537 1.574537-3.145068 2.884648-4.719605 4.455178-0.26042 0-0.26042 0.264426-0.520839 0.520839-1.574537 1.314117-3.145068 2.884648-4.715598 4.455179-0.264426 0.264426-0.264426 0.524846-0.524846 0.524846-1.310111 1.310111-2.620222 2.620222-3.930333 4.190752-0.520839 0.524846-1.310111 1.049691-1.834956 1.574537-1.310111 1.570531-2.884648 3.145068-4.451172 4.715598-0.264426 0.520839-0.789272 0.785265-1.049692 1.310111-2.095376 2.095376-3.930333 4.190753-6.025709 6.290136l-0.785265 0.785265c-4.194759 4.451172-8.649938 8.906351-13.365536 12.836684a148.879889 148.879889 0 0 1-14.67164 11.526572 197.958969 197.958969 0 0 1-15.721332 9.956042 159.681293 159.681293 0 0 1-16.506597 7.860666 188.796205 188.796205 0 0 1-17.027436 6.290135c-11.005733 2.355796-22.271886 6.810974-31.967509 7.59624-2.095376 0-4.451172 0.524846-6.546548 0.785265-2.359802 0.524846-4.455179 1.049691-6.550555 1.574537l-6.290135 2.355796c-2.095376 0.789272-4.190753 1.834957-6.290135 2.884648-1.83095 1.310111-3.926326 2.355796-5.761283 3.665907-1.834957 1.310111-3.669913 2.884648-5.240444 4.455179-1.834957 1.310111-3.665907 3.145068-5.240444 4.715598-1.570531 1.834957-3.145068 3.405487-4.455179 5.240444-1.306105 2.095376-2.880642 3.930333-3.926326 6.025709-1.310111 1.834957-2.620222 3.930333-3.669913 6.025709-1.049691 2.359802-2.095376 4.455179-2.884648 6.810974a201.885296 201.885296 0 0 0-2.355796 6.810975c-0.520839 2.099383-1.049691 4.194759-1.310111 6.290135 0 0.264426-0.26042 0.524846-0.26042 0.789272-0.524846 2.355796-0.524846 5.500863-0.789272 7.071394-0.26042 1.834957-0.520839 3.405487-0.520839 5.240444 0 1.049691 0 2.359802 0.26042 3.405487 0.264426 1.834957 0.520839 3.405487 1.049691 4.980024 0.520839 1.570531 1.049691 3.145068 1.834957 4.715598v0.264427c0.785265 1.570531 1.83095 3.141061 2.880641 4.715598 1.049691 1.570531 2.095376 3.141061 3.405487 4.715598 1.310111 1.310111 2.884648 2.884648 4.455179 4.190752 1.570531 1.570531 3.145068 2.884648 4.976018 4.190753 6.290135 5.50487 7.860666 7.33582 15.985758 11.530579 1.310111 0.785265 2.620222 1.310111 4.190752 2.095376 0.26042 0 0.520839 0.26042 0.785265 0.26042 0 0.524846 0 0.789272 0.264426 1.310111 0.26042 2.099383 0.785265 4.194759 1.310111 6.290135 0.520839 2.355796 1.310111 4.455179 2.095377 6.290135 0.785265 1.570531 1.310111 3.141061 2.095376 4.715599 0.26042 0.520839 0.520839 1.045685 0.785265 1.306104 1.049691 2.099383 2.095376 3.930333 3.145068 5.769296l3.926326 5.500864c1.314117 1.570531 2.884648 3.405487 4.459185 4.976017 1.570531 1.570531 3.141061 2.884648 4.976018 4.455179 0 0 0.264426 0.26042 0.520839 0.26042 1.574537 1.310111 3.145068 2.620222 4.719605 3.669913 1.834957 1.310111 3.665907 2.355796 5.76529 3.405487 1.83095 1.049691 3.926326 2.095376 6.025709 2.884648 1.570531 0.781259 3.405487 1.306105 5.240444 1.83095 0.26042 0.264426 0.520839 0.264426 1.045684 0.520839 1.049691 0.264426 2.359802 0.524846 3.405488 0.789272-0.785265 14.146795-1.045685 27.51233 1.049691 32.227929 2.359802 5.240444 13.886375-10.745314 25.412948-29.086868-1.570531 18.081134-2.620222 39.303329 0 45.593465 2.884648 6.550555 18.60598-13.886375 32.227928-36.418681 185.763318-42.969236 355.28046 85.413626 373.097168 266.721765-3.405487-28.297596-38.253638-44.014921-54.235389-40.088594-7.860666 19.387238-21.222195 44.279347-42.708817 59.736252 1.834957-17.291862 1.049691-35.10857-2.620222-52.404438-5.76529 24.106843-17.027436 46.635143-32.488348 66.026387-24.892108 1.834957-49.78021-10.216462-62.88132-28.293589-1.049691-0.785265-1.310111-2.359802-2.095376-3.405487-0.785265-1.834957-1.570531-3.669913-2.095376-5.50487a21.751047 21.751047 0 0 1-1.574537-5.500863c-0.26042-1.834957-0.26042-3.665907-0.26042-5.76529v-3.926326c0.26042-1.834957 0.785265-3.669913 1.310111-5.50487 0.520839-1.834957 1.049691-3.665907 1.834957-5.500864 1.045685-1.834957 1.83095-3.669913 3.141061-5.500863 4.455179-12.58027 4.455179-22.796732-3.665907-28.822442a29.844087 29.844087 0 0 0-4.980024-2.620222c-1.045685-0.264426-2.355796-0.785265-3.405487-1.049691-0.785265-0.26042-1.310111-0.520839-2.095377-0.785265-1.834957-0.520839-3.669913-1.049691-5.500863-1.310111a19.964168 19.964168 0 0 0-5.50487-0.785265c-1.83095-0.264426-3.926326-0.520839-5.761283-0.52084-1.310111 0-2.620222 0.26042-3.930333 0.26042-2.095376 0-3.930333 0.26042-5.76529 0.785265-1.834957 0.26042-3.665907 0.520839-5.500863 1.049692-1.834957 0.520839-3.669913 1.045685-5.500864 1.83095-1.834957 0.789272-3.405487 1.574537-5.240443 2.359802-1.574537 0.785265-3.145068 1.834957-4.980025 2.620222-61.046363 39.824168-24.627682 133.094454 17.027436 160.085945-15.717325 2.884648-31.699076 6.290135-36.154255 9.695622l-0.520839 0.520839c11.266153 6.810974 23.053145 12.58027 35.36899 17.556289 16.767017 5.500863 34.583724 10.476881 42.44439 12.576264v0.260419a253.48043 253.48043 0 0 0 66.026388 4.715599c116.067018-8.121085 211.176266-96.419359 228.468128-212.742791 0.520839 2.355796 1.049691 4.451172 1.57053 6.810975 0.785265 4.715598 1.834957 9.695622 2.359803 14.67164v0.26042c0.520839 2.359802 0.785265 4.715598 1.049691 6.810974v1.049692c0.26042 2.359802 0.520839 4.715598 0.520839 6.810974 0.264426 2.884648 0.520839 5.769296 0.52084 8.649938v4.190752c0 1.310111 0.264426 2.884648 0.264426 4.190753 0 1.574537-0.26042 3.145068-0.26042 4.715598v3.669913c0 1.834957-0.264426 3.405487-0.264426 5.240444 0 1.049691 0 2.095376-0.26042 3.405487 0 1.834957-0.264426 3.669913-0.264426 5.76529-0.26042 0.785265-0.26042 1.570531-0.260419 2.355796-0.264426 2.099383-0.520839 3.930333-0.785266 6.025709 0 0.789272 0 1.574537-0.264426 2.359802-0.26042 2.620222-0.785265 4.980024-1.045685 7.600246v0.524846c-0.524846 2.355796-1.049691 4.976018-1.574537 7.331814v0.789271l-1.57053 7.075401c0 0.26042-0.264426 0.785265-0.264426 1.045685-0.520839 2.359802-1.045685 4.715598-1.83095 7.0754v0.785266c-0.789272 2.620222-1.574537 4.980024-2.099383 7.33582-0.26042 0.264426-0.26042 0.520839-0.26042 0.520839l-2.359802 7.864672c-1.045685 2.620222-1.83095 4.976018-2.880642 7.59624-1.049691 2.620222-1.834957 5.240444-2.884648 7.600246-1.045685 2.620222-2.095376 4.976018-3.141061 7.59624h-0.264426c-1.045685 2.359802-2.095376 4.980024-3.405487 7.33582-0.26042 0.789272-0.520839 1.310111-0.785265 1.834957-0.264426 0.264426-0.264426 0.520839-0.52084 0.785265-17.031443 34.323305-42.187977 64.451851-73.626633 88.033848-2.095376 1.310111-4.190753 2.884648-6.290136 4.455178-0.520839 0.520839-1.306105 0.785265-1.83095 1.310111-1.834957 1.310111-3.669913 2.620222-5.765289 3.926327l0.785265 1.574537h0.264426l11.005733-1.570531h0.26042c6.810974-1.049691 13.621949-2.359802 20.43693-3.669913 1.834957-0.26042 3.926326-0.785265 5.765289-1.310111 1.310111-0.26042 2.355796-0.520839 3.665907-0.785265 1.834957-0.26042 3.669913-0.785265 5.50487-1.045685 1.570531-0.524846 3.141061-0.789272 4.715598-1.310111 26.202219-6.290135 51.615167-14.936066 75.98243-25.152528-41.659125 56.851604-97.465044 102.705488-162.706167 132.83804 30.128546-2.099383 60.257092-7.075401 89.343959-15.460912 105.590136-31.178237 194.409249-102.180643 247.594947-197.814736a418.245915 418.245915 0 0 1-70.477559 168.471456 412.45258 412.45258 0 0 0 69.952714-58.165722c58.694574-61.310789 97.208631-139.124169 110.309741-222.702839a417.224269 417.224269 0 0 1 7.596239 126.287486c189.168806-263.841124 15.721332-537.385884-56.851604-609.421955-0.264426-0.520839-0.528852-0.785265-0.528852-1.310111-0.26042 0.264426-0.26042 0.264426-0.26042 0.524846 0-0.264426 0-0.264426-0.264426-0.520839 0 3.141061-0.26042 6.286129-0.520839 9.42719-0.785265 6.029716-1.574537 11.790999-2.620222 17.556288-1.310111 5.76529-2.884648 11.526573-4.455179 17.291862a217.899098 217.899098 0 0 1-6.290135 16.767017 224.96248 224.96248 0 0 1-7.856659 15.985757c-2.884648 4.976018-6.025709 10.216462-9.435203 14.93206a200.2747 200.2747 0 0 1-10.737301 14.150801c-3.934339 4.715598-8.125092 8.906351-12.315844 13.10111a168.984283 168.984283 0 0 1-7.600247 6.546548c-2.095376 1.834957-3.926326 3.405487-6.025709 5.240444-4.715598 3.669913-9.431196 7.075401-14.67164 10.216462-4.980024 3.145068-10.216462 6.290135-15.456905 8.910357-5.50487 2.620222-11.005733 4.980024-16.506597 7.33582-5.50487 2.095376-11.266153 3.930333-17.031443 5.50487a211.020014 211.020014 0 0 1-17.556288 3.926326c-6.025709 1.049691-12.051418 1.574537-17.816708 2.099383-4.190753 0.26042-8.381505 0.520839-12.576264 0.520839-6.025709 0-12.051418-0.520839-17.812701-1.045685-6.029716-0.524846-12.055425-1.310111-17.816708-2.620222-6.025709-1.049691-11.790999-2.620222-17.556289-4.455178h-0.260419c5.761283-0.520839 11.526573-1.049691 17.291862-2.095376a189.897981 189.897981 0 0 0 17.552282-3.930333 184.449201 184.449201 0 0 0 17.031442-5.500864c5.76529-2.099383 11.266153-4.719605 16.506597-7.339826 5.500863-2.620222 10.480888-5.500863 15.721332-8.645931 4.976018-3.405487 9.956042-6.810974 14.67164-10.476882a143.258831 143.258831 0 0 0 13.361529-11.790998c4.455179-3.930333 8.385511-8.385511 12.315845-12.840691a258.700842 258.700842 0 0 0 11.001727-14.146794c0.524846-0.785265 1.049691-1.834957 1.574537-2.620222 2.620222-4.190753 5.240444-8.385511 7.59624-12.576264a180.627042 180.627042 0 0 0 7.860665-15.985758 183.615858 183.615858 0 0 0 6.290136-16.76301c1.83095-5.50487 3.141061-11.266153 4.451172-17.031442 1.049691-6.025709 2.095376-11.790999 2.620222-17.556289 0.520839-6.025709 1.049691-12.051418 1.049691-17.812701 0-4.194759-0.264426-8.385511-0.520839-12.58027-0.524846-6.025709-1.314117-11.786992-2.099383-17.552282a189.914006 189.914006 0 0 0-3.926326-17.552282c-1.838963-5.50487-3.669913-11.266153-5.769296-16.771023-2.095376-5.500863-4.715598-11.001727-7.331814-16.242171-2.884648-5.240444-5.769296-10.480888-8.910357-15.460912-3.405487-4.976018-6.810974-9.695622-10.480888-14.407214-3.926326-4.455179-7.860666-8.910357-12.051418-13.365536a163.876052 163.876052 0 0 0-6.810975-6.550555 482.405294 482.405294 0 0 0-36.418681-25.673367c-1.834957-1.049691-3.405487-1.834957-5.240444-2.620222-8.645931-5.50487-16.771023-8.385511-24.892108-11.005733z"
                fill="#E0234E" p-id="700"></path>
        </svg>
    </g>

<g transform="translate(300, 300)">
        <svg width="256" height="256" viewBox="0 0 256 256" fill="none" xmlns="http://www.w3.org/2000/svg">
            <rect width="256" height="256" rx="60" fill="#FF6C37" />
            <path d="M169.061 88.6123L118.521 139.153L104.268 124.901C153.971 75.1986 158.882 79.5101 169.061 88.6123Z"
                fill="#EEEEEE" />
            <path
                d="M118.521 140.35C118.161 140.35 117.922 140.231 117.682 139.991L103.31 125.739C102.831 125.26 102.831 124.542 103.31 124.063C153.851 73.5211 159.12 78.3118 169.78 87.8932C170.02 88.1328 170.139 88.3724 170.139 88.7317C170.139 89.0911 170.02 89.3306 169.78 89.5694L119.239 139.991C119.12 140.231 118.76 140.35 118.521 140.35ZM105.945 124.901L118.521 137.476L167.265 88.7317C158.403 80.8266 152.414 78.4316 105.945 124.901Z"
                fill="#FF6C37" />
            <path d="M133.012 153.645L119.239 139.872L169.78 89.3315C183.314 102.984 163.073 125.141 133.012 153.645Z"
                fill="#EEEEEE" />
            <path
                d="M133.012 154.843C132.652 154.843 132.414 154.723 132.174 154.483L118.401 140.71C118.161 140.471 118.161 140.231 118.161 139.872C118.161 139.512 118.281 139.273 118.521 139.033L169.061 88.4927C169.54 88.0135 170.259 88.0135 170.738 88.4927C173.852 91.3668 175.529 95.4387 175.409 99.6305C175.17 112.924 160.079 129.811 133.97 154.483C133.611 154.723 133.251 154.843 133.012 154.843ZM120.916 139.872C128.58 147.656 131.815 150.771 133.012 151.968C153.133 132.806 172.654 113.164 172.774 99.6305C172.894 96.5168 171.697 93.4031 169.66 91.0074L120.916 139.872Z"
                fill="#FF6C37" />
            <path
                d="M104.508 125.26L114.688 135.44C114.927 135.68 114.927 135.919 114.688 136.159C114.568 136.279 114.568 136.279 114.449 136.279L93.3693 140.83C92.292 140.95 91.3337 140.231 91.0942 139.153C90.9744 138.554 91.214 137.956 91.5733 137.596L103.789 125.38C104.029 125.14 104.388 125.02 104.508 125.26Z"
                fill="#EEEEEE" />
            <path
                d="M93.01 142.028C91.214 142.028 89.8963 140.59 89.8963 138.793C89.8963 137.956 90.2557 137.117 90.8546 136.518L103.07 124.302C103.789 123.703 104.748 123.703 105.466 124.302L115.646 134.482C116.364 135.081 116.364 136.159 115.646 136.877C115.406 137.117 115.167 137.237 114.807 137.357L93.7287 141.908C93.4891 141.908 93.2495 142.028 93.01 142.028ZM104.149 126.577L92.4118 138.314C92.1723 138.554 92.0525 138.913 92.292 139.272C92.4118 139.632 92.7704 139.752 93.1298 139.632L112.891 135.32L104.149 126.577Z"
                fill="#FF6C37" />
            <path
                d="M195.769 60.5877C188.104 53.1625 175.768 53.4021 168.342 61.1867C160.917 68.9712 161.157 81.1871 168.941 88.6131C175.289 94.7207 184.871 95.7988 192.416 91.2476L178.762 77.5943L195.769 60.5877Z"
                fill="#EEEEEE" />
            <path
                d="M182.355 95.1996C170.978 95.1996 161.756 85.9776 161.756 74.6002C161.756 63.222 170.978 54 182.355 54C187.625 54 192.775 56.0364 196.607 59.749C196.847 59.9886 196.967 60.2281 196.967 60.5875C196.967 60.9469 196.847 61.1864 196.607 61.426L180.439 77.5941L193.134 90.2891C193.614 90.7683 193.614 91.487 193.134 91.9661C193.015 92.0859 193.015 92.0859 192.895 92.2057C189.781 94.1215 186.068 95.1996 182.355 95.1996ZM182.355 56.5155C172.295 56.5155 164.151 64.6595 164.271 74.72C164.271 84.7805 172.414 92.9244 182.475 92.8047C185.23 92.8047 187.984 92.2057 190.499 90.888L177.924 78.4326C177.684 78.193 177.565 77.9534 177.565 77.5941C177.565 77.2347 177.684 76.9951 177.924 76.7556L193.973 60.7073C190.739 57.953 186.667 56.5155 182.355 56.5155Z"
                fill="#FF6C37" />
            <path
                d="M196.128 60.9471L195.889 60.7075L178.762 77.5943L192.296 91.1279C193.614 90.2894 194.93 89.3319 196.009 88.2538C203.673 80.708 203.673 68.4921 196.128 60.9471Z"
                fill="#EEEEEE" />
            <path
                d="M192.416 92.4448C192.056 92.4448 191.817 92.325 191.577 92.0855L177.924 78.4321C177.684 78.1925 177.565 77.953 177.565 77.5936C177.565 77.2342 177.684 76.9947 177.924 76.7551L194.93 59.7485C195.41 59.2694 196.128 59.2694 196.607 59.7485L196.967 59.9881C204.991 68.0122 204.991 80.9469 197.087 89.0916C195.889 90.2887 194.571 91.3667 193.134 92.2053C192.775 92.325 192.536 92.4448 192.416 92.4448ZM180.439 77.5936L192.536 89.6897C193.494 89.0916 194.452 88.2531 195.17 87.5344C201.997 80.7073 202.356 69.5695 195.769 62.3838L180.439 77.5936Z"
                fill="#FF6C37" />
            <path
                d="M171.098 90.7674C168.223 87.8933 163.552 87.8933 160.678 90.7674L115.526 135.919L123.072 143.464L170.858 101.547C173.972 98.9113 174.211 94.2404 171.577 91.1267C171.337 91.007 171.217 90.8872 171.098 90.7674Z"
                fill="#EEEEEE" />
            <path
                d="M122.952 144.662C122.593 144.662 122.353 144.542 122.113 144.303L114.568 136.758C114.089 136.279 114.089 135.56 114.568 135.081L159.719 89.929C163.073 86.5758 168.462 86.5758 171.816 89.929C175.17 93.283 175.17 98.6719 171.816 102.026C171.697 102.146 171.577 102.265 171.457 102.385L123.67 144.303C123.551 144.542 123.311 144.662 122.952 144.662ZM117.203 135.919L123.072 141.788L170.02 100.588C172.654 98.4323 172.894 94.4801 170.738 91.8456C168.582 89.2111 164.63 88.9715 161.995 91.1269C161.876 91.2467 161.756 91.3664 161.516 91.4862L117.203 135.919Z"
                fill="#FF6C37" />
            <path
                d="M80.9139 187.3C80.4347 187.539 80.1951 188.018 80.3149 188.497L82.3513 197.121C82.8305 198.318 82.1117 199.756 80.7941 200.115C79.8358 200.474 78.7585 200.115 78.1596 199.397L64.9854 186.342L107.981 143.346L122.832 143.585L132.892 153.646C130.497 155.682 116.005 169.694 80.9139 187.3Z"
                fill="#EEEEEE" />
            <path
                d="M79.9556 201.311C78.9981 201.311 78.0398 200.952 77.4408 200.234L64.3864 187.179C64.1469 186.94 64.0271 186.7 64.0271 186.341C64.0271 185.982 64.1469 185.742 64.3864 185.502L107.382 142.507C107.622 142.267 107.981 142.147 108.221 142.147L123.072 142.387C123.431 142.387 123.67 142.507 123.909 142.746L133.97 152.806C134.21 153.046 134.329 153.405 134.329 153.764C134.329 154.124 134.21 154.363 133.85 154.603L133.012 155.322C120.317 166.459 103.07 177.598 81.6326 188.257L83.669 196.76C84.0275 198.317 83.3096 199.994 81.8722 200.832C81.1534 201.191 80.5545 201.311 79.9556 201.311ZM66.7814 186.341L79.1178 198.557C79.4764 199.156 80.1951 199.395 80.7941 199.036C81.393 198.677 81.6326 197.958 81.2732 197.359L79.2376 188.736C78.9981 187.658 79.4764 186.7 80.4347 186.221C101.633 175.562 118.76 164.544 131.335 153.645L122.473 144.782L108.7 144.542L66.7814 186.341Z"
                fill="#FF6C37" />
            <path
                d="M54.8051 196.641L65.1052 186.341L80.4347 201.671L56.0029 199.995C54.9249 199.875 54.2061 198.917 54.3259 197.838C54.3259 197.359 54.4457 196.88 54.8051 196.641Z"
                fill="#EEEEEE" />
            <path
                d="M80.4347 202.749L55.8831 201.072C54.0863 200.952 52.8884 199.396 53.0082 197.599C53.128 196.88 53.3676 196.162 53.9665 195.683L64.2666 185.383C64.7458 184.904 65.4645 184.904 65.9429 185.383L81.2732 200.713C81.6326 201.072 81.7524 201.551 81.5128 202.031C81.2732 202.51 80.9139 202.749 80.4347 202.749ZM65.1051 188.018L55.6435 197.479C55.2842 197.719 55.2842 198.318 55.6435 198.557C55.7633 198.677 55.8831 198.797 56.1227 198.797L77.321 200.234L65.1051 188.018Z"
                fill="#FF6C37" />
            <path
                d="M103.789 148.855C103.07 148.855 102.591 148.256 102.591 147.657C102.591 147.298 102.711 147.059 102.951 146.819L114.568 135.202C115.047 134.722 115.766 134.722 116.245 135.202L123.79 142.747C124.149 143.106 124.269 143.465 124.149 143.945C124.029 144.304 123.67 144.663 123.192 144.783L104.029 148.855C103.909 148.855 103.789 148.855 103.789 148.855ZM115.406 137.717L107.502 145.622L120.436 142.866L115.406 137.717Z"
                fill="#FF6C37" />
            <path
                d="M122.832 143.584L109.658 146.459C108.7 146.699 107.741 146.1 107.502 145.142C107.382 144.543 107.502 143.944 107.981 143.465L115.286 136.159L122.832 143.584Z"
                fill="#EEEEEE" />
            <path
                d="M109.418 147.657C107.741 147.657 106.424 146.34 106.424 144.663C106.424 143.825 106.783 143.106 107.262 142.508L114.568 135.202C115.047 134.722 115.766 134.722 116.245 135.202L123.79 142.747C124.149 143.106 124.269 143.465 124.149 143.945C124.029 144.304 123.67 144.663 123.192 144.783L110.017 147.657C109.778 147.657 109.538 147.657 109.418 147.657ZM115.406 137.717L108.939 144.184C108.7 144.424 108.7 144.663 108.819 144.903C108.939 145.142 109.179 145.262 109.538 145.262L120.556 142.866L115.406 137.717Z"
                fill="#FF6C37" />
            <path
                d="M196.248 72.4434C196.009 71.7254 195.17 71.3661 194.451 71.6057C193.733 71.8444 193.374 72.6829 193.614 73.4017C193.614 73.5215 193.733 73.6412 193.733 73.761C194.451 75.1985 194.213 76.9945 193.254 78.3121C192.775 78.9111 192.895 79.7496 193.374 80.2287C193.973 80.7071 194.811 80.5881 195.29 79.9892C197.087 77.7132 197.446 74.8391 196.248 72.4434Z"
                fill="#FF6C37" />
        </svg>
    </g>

<g transform="translate(600, 300)">
        <svg t="1710923667679" class="icon" viewBox="0 0 1024 1024" version="1.1" xmlns="http://www.w3.org/2000/svg" p-id="94843" width="256" height="256"><path d="M882.23288889 749.45422222L526.90488889 950.38577778V793.94133333l221.41155556-121.856 133.91644444 77.36888889z m24.34844444-22.07288889V307.08622222l-129.93422222 75.09333333v270.22222223l129.93422222 74.97955555z m-766.17955555 22.07288889l355.328 201.04533333V793.94133333L274.20444445 672.08533333l-133.80266667 77.36888889zM116.05333333 727.38133333V307.08622222l129.93422222 75.09333333v270.22222223L116.05333333 727.38133333z m15.24622222-447.60177778l364.43022223-206.16533333v151.32444445L262.144 353.39377778l-1.82044445 1.024c0 0.11377778-129.024-74.63822222-129.024-74.63822223z m760.03555556 0L526.90488889 73.728v151.32444445l233.472 128.34133333 1.82044444 1.024 129.13777778-74.63822223z" fill="#8ED6FB" p-id="94844"></path><path d="M495.72977778 758.21511111l-218.45333333-120.14933333V400.15644445l218.45333333 126.17955555v231.87911111z m31.17511111 0l218.45333333-120.03555556V400.15644445l-218.45333333 126.17955555v231.87911111zM291.95377778 372.62222222l219.24977777-120.49066667L730.45333333 372.62222222 511.31733333 499.25688889 291.95377778 372.62222222z" fill="#1C78C0" p-id="94845"></path></svg>

    </g>

<g transform="translate(900, 300)">
        <svg class="text-black dark:text-white block w-auto h-6" width="256" height="256" viewBox="0 0 300 200"
            fill="none" xmlns="http://www.w3.org/2000/svg">
            <path
                d="M168 200H279C282.542 200 285.932 198.756 289 197C292.068 195.244 295.23 193.041 297 190C298.77 186.959 300.002 183.51 300 179.999C299.998 176.488 298.773 173.04 297 170.001L222 41C220.23 37.96 218.067 35.7552 215 34C211.933 32.2448 207.542 31 204 31C200.458 31 197.067 32.2448 194 34C190.933 35.7552 188.77 37.96 187 41L168 74L130 9.99764C128.228 6.95784 126.068 3.75491 123 2C119.932 0.245087 116.542 0 113 0C109.458 0 106.068 0.245087 103 2C99.9323 3.75491 96.7717 6.95784 95 9.99764L2 170.001C0.226979 173.04 0.00154312 176.488 1.90993e-06 179.999C-0.0015393 183.51 0.229648 186.959 2 190C3.77035 193.04 6.93245 195.244 10 197C13.0675 198.756 16.4578 200 20 200H90C117.737 200 137.925 187.558 152 164L186 105L204 74L259 168H186L168 200ZM89 168H40L113 42L150 105L125.491 147.725C116.144 163.01 105.488 168 89 168Z"
                fill="#00DC82"></path>
        </svg>
    </g>

    <g transform="translate(1200, 300)">
    <svg xmlns="http://www.w3.org/2000/svg" width="256" height="256" fill="none" viewBox="0 0 256 256">
            <rect width="256" height="256" fill="#242938" rx="60" />
            <path fill="#000"
                d="M17 120H237.641V193.109C237.641 210.289 223.605 223.445 205.285 223.445H49.3555C31.0312 223.445 17 210.289 17 193.109V120Z" />
            <path fill="#FFB13B" stroke="#000" stroke-width="28.695"
                d="M61.6328 108.908C54.8086 102.506 43.7422 102.506 36.918 108.908C30.0938 115.307 30.0938 125.682 36.918 132.084C43.7422 138.482 54.8086 138.482 61.6328 132.084H192.848C199.676 138.482 210.738 138.482 217.566 132.084C224.391 125.682 224.391 115.307 217.566 108.908C210.738 102.506 199.676 102.506 192.848 108.908H61.6328Z" />
            <path fill="#FFB13B" stroke="#000" stroke-width="28.725"
                d="M89.5898 68.8027C89.5898 59.7481 81.7656 52.4121 72.1133 52.4121C62.457 52.4121 54.6328 59.7481 54.6328 68.8027C54.6328 77.8535 62.457 85.1894 72.1133 85.1894L164.895 172.189C164.895 181.24 172.719 188.576 182.371 188.576C192.023 188.576 199.848 181.24 199.848 172.189C199.848 163.139 192.023 155.803 182.371 155.803L89.5898 68.8027Z" />
            <path fill="#FFB13B" stroke="#000" stroke-width="28.695"
                d="M139.602 58.9785C146.426 52.5762 146.426 42.2012 139.602 35.7988C132.773 29.4004 121.707 29.4004 114.883 35.7988C108.059 42.2012 108.059 52.5762 114.883 58.9785L114.883 182.014C108.059 188.412 108.059 198.791 114.883 205.189C121.707 211.592 132.773 211.592 139.602 205.189C146.426 198.791 146.426 188.412 139.602 182.014V58.9785Z" />
            <path fill="#FFB13B" stroke="#000" stroke-width="28.725"
                d="M182.371 85.1895C192.023 85.1895 199.848 77.8536 199.848 68.8028C199.848 59.7481 192.023 52.4122 182.371 52.4122C172.719 52.4122 164.895 59.7481 164.895 68.8028L72.1133 155.803C62.457 155.803 54.6328 163.139 54.6328 172.189C54.6328 181.24 62.457 188.576 72.1133 188.576C81.7656 188.576 89.5898 181.24 89.5898 172.189L182.371 85.1895Z" />
            <path fill="#FFB13B"
                d="M61.6328 108.908C54.8086 102.506 43.7422 102.506 36.918 108.908C30.0938 115.307 30.0938 125.682 36.918 132.084C43.7422 138.482 54.8086 138.482 61.6328 132.084H192.848C199.676 138.482 210.738 138.482 217.566 132.084C224.391 125.682 224.391 115.307 217.566 108.908C210.738 102.506 199.676 102.506 192.848 108.908H61.6328Z" />
            <path fill="#FFB13B"
                d="M89.5898 68.8027C89.5898 59.748 81.7656 52.4121 72.1133 52.4121C62.457 52.4121 54.6328 59.748 54.6328 68.8027C54.6328 77.8535 62.457 85.1895 72.1133 85.1895L164.895 172.189C164.895 181.24 172.719 188.576 182.371 188.576C192.023 188.576 199.848 181.24 199.848 172.189C199.848 163.139 192.023 155.803 182.371 155.803L89.5898 68.8027Z" />
            <path fill="#FFB13B"
                d="M139.602 58.9785C146.426 52.5762 146.426 42.2012 139.602 35.7988C132.773 29.4004 121.707 29.4004 114.883 35.7988C108.059 42.2012 108.059 52.5762 114.883 58.9785V182.014C108.059 188.412 108.059 198.791 114.883 205.189C121.707 211.592 132.773 211.592 139.602 205.189C146.426 198.791 146.426 188.412 139.602 182.014V58.9785Z" />
            <path fill="#FFB13B"
                d="M182.371 85.1895C192.023 85.1895 199.848 77.8535 199.848 68.8027C199.848 59.748 192.023 52.4121 182.371 52.4121C172.719 52.4121 164.895 59.748 164.895 68.8027L72.1133 155.803C62.457 155.803 54.6328 163.139 54.6328 172.189C54.6328 181.24 62.457 188.576 72.1133 188.576C81.7656 188.576 89.5898 181.24 89.5898 172.189L182.371 85.1895Z" />
            <path fill="#000" fill-opacity=".9"
                d="M17 121H237.641V194.109C237.641 211.289 223.605 224.445 205.285 224.445H49.3555C31.0312 224.445 17 211.289 17 194.109V121Z" />
            <path fill="#fff"
                d="M50.0273 172.135C44.8516 167.283 41.6484 160.584 41.6484 153.186C41.6484 138.381 54.457 126.377 70.2383 126.377C86.0273 126.377 98.832 138.381 98.832 153.186H82.0859C82.0859 147.053 76.7773 142.084 70.2383 142.084C63.6992 142.084 58.3984 147.053 58.3984 153.186C58.3984 156.248 59.7266 159.025 61.8594 161.025H61.8672C64.0117 163.045 65.7969 163.627 70.2383 164.291C78.1367 165.061 85.2813 167.291 90.457 172.143C95.6328 176.998 98.832 183.697 98.832 191.096C98.832 205.9 86.0273 217.908 70.2383 217.908C54.457 217.908 41.6484 205.9 41.6484 191.096H58.3984C58.3984 197.229 63.6992 202.205 70.2383 202.205C76.7773 202.205 82.0859 197.229 82.0859 191.096C82.0859 188.033 80.7617 185.264 78.625 183.256H78.6172C76.4727 181.244 73.3945 180.553 70.2383 179.998V179.994C62.582 178.893 55.2031 176.99 50.0273 172.135Z" />
            <path fill="#fff"
                d="M156.016 126.377L135.789 217.908H119.043L98.832 126.377H115.582L127.434 179.986L139.266 126.377H156.016Z" />
            <path fill="#fff"
                d="M184.613 164.291H213.199V191.096H213.207C213.207 205.904 200.402 217.912 184.613 217.912C168.82 217.912 156.023 205.904 156.023 191.096V153.186H156.016C156.016 138.381 168.82 126.381 184.613 126.381C200.395 126.381 213.199 138.381 213.199 153.186H196.453C196.453 147.061 191.145 142.084 184.613 142.084C178.07 142.084 172.77 147.061 172.77 153.186V191.096C172.77 197.229 178.07 202.201 184.613 202.201C191.145 202.201 196.445 197.229 196.453 191.104V180.002H184.613V164.291Z" />
        </svg>
    </g>

<g transform="translate(1500, 300)">
        <svg xmlns="http://www.w3.org/2000/svg" width="256" height="256"  viewBox="0 0 207.74 252.58"><defs><style>.cls-1{fill:#93ceaa;}.cls-2{fill:#4c9717;}.cls-3{fill:#5fbc21;}.cls-4{fill:#e8ceaa;opacity:0.6;}</style></defs><title>Naive UI - LOGO</title><g id="Layer_2" data-name="Layer 2"><g id="Layer_1-2" data-name="Layer 1"><path class="cls-1" d="M60.37,205.2c0,2.5,0,5,.05,7.5,0,.54,0,1.07-.05,1.58Z"/><path class="cls-1" d="M147.29,37.68v85.2c-.06-27.24-.19-54.49-.22-81.73A29,29,0,0,1,147.29,37.68Z"/><path class="cls-2" d="M147.06,125.43a16.9,16.9,0,0,0,.23-2.55v79.66l-41.74-38.17-21-19.15L71.91,133.6l-5.62-5.13-2.07-1.89-.15-.13c-.51-.41-1-.84-1.47-1.23s-.88-.73-1.44-.56a1.25,1.25,0,0,0-.79.9v-75l.43.39,8.57,7.75c4.51,4,9.06,8,13.56,12Q92.53,79.3,102.07,88q7.55,6.86,15.08,13.74c6,5.47,11.92,11,17.92,16.43,2.7,2.44,5.42,4.83,8.15,7.23.58.51,1.15,1,1.74,1.52a1.47,1.47,0,0,0,1.4.18,1.16,1.16,0,0,0,.56-.72C147,126,147,125.74,147.06,125.43Z"/><path class="cls-3" d="M60.28,126a15.67,15.67,0,0,0-.1,2.74c0,25.5,0,51,.19,76.49v9.08a14.85,14.85,0,0,1-5.87,11.09c-6.81,5.69-13.16,11.91-19.73,17.89-2.75,2.5-5.48,5-8.31,7.44s-10.11,2.74-14.14-.63a78.48,78.48,0,0,1-8.54-8.66,12.76,12.76,0,0,1-3.73-8.69c0-.72-.06-1.51,0-2.38,0-1.5,0-3,.05-4.51.05-4.3,0-8.61,0-12.91V72.71a12.64,12.64,0,0,1,.38-3.18,18.42,18.42,0,0,1,1-2.64A22.16,22.16,0,0,1,3.5,63.31l16-16L29.69,37.13a7.84,7.84,0,0,1,1.84-1.38,8.05,8.05,0,0,1,3.21-1h0a13.85,13.85,0,0,1,9.71,1.79h0a13.59,13.59,0,0,1,2.09,1.57L60.37,50.53v75A3.38,3.38,0,0,0,60.28,126Z"/><path class="cls-4" d="M60.28,126a3.38,3.38,0,0,1,.09-.41V205.2c-.15-25.5-.14-51-.19-76.49A15.67,15.67,0,0,1,60.28,126Z"/><path class="cls-3" d="M205.59,187.21l-29.39,27a3.75,3.75,0,0,1-.36.24l-.11.08-.2.12A14,14,0,0,1,158.77,213L157,211.45l-9.75-8.91V37.68c.16-1.39.4-2.78.67-4.14.7-3.55,3.82-5.31,6.2-7.53,5.17-4.8,10.5-9.42,15.77-14.12,3.63-3.24,7.25-6.49,10.91-9.71,3.19-2.81,9.37-2.67,12.37-.93a10.11,10.11,0,0,1,2.08,1.61l3.38,3.26,2.73,2.61,2.49,2.41a11.45,11.45,0,0,1,1.78,2.09,11.73,11.73,0,0,1,1.7,6.46c-.05,14.66.06,29.32.09,44q.09,37.35.16,74.7,0,19.14.07,38.27c0,.59,0,1.17,0,1.75C207.8,182.21,207.72,184.72,205.59,187.21Z"/></g></g></svg>

    </g>

<g transform="translate(1800, 300)">
<svg xmlns="http://www.w3.org/2000/svg" width="256" height="256" fill="none" viewBox="0 0 256 256"><rect width="256" height="256" fill="#242938" rx="60"/><path stroke="#fff" stroke-width="10" d="M217 69H39C33.4772 69 29 73.4772 29 79V177C29 182.523 33.4772 187 39 187H217C222.523 187 227 182.523 227 177V79C227 73.4772 222.523 69 217 69Z"/><path fill="#fff" d="M54 162V94H74L94 119L114 94H134V162H114V123L94 148L74 123V162H54ZM179 162L149 129H169V94H189V129H209L179 162Z"/></svg>
    </g>

<g transform="translate(2100, 300)">
        <svg t="1710923305370" class="icon" viewBox="0 0 1024 1024" version="1.1" xmlns="http://www.w3.org/2000/svg" p-id="93826" width="256" height="256"><path d="M815.616 0H208.384C93.3 0 0 94.068 0 210.083v603.834C0 929.955 93.3 1024 208.384 1024h607.232C930.7 1024 1024 929.955 1024 813.917V210.083C1024 94.068 930.7 0 815.616 0z" fill="#10A37F" p-id="93827"></path><path d="M757.364 460.032A142.825 142.825 0 0 0 745.1 342.807a144.407 144.407 0 0 0-155.462-69.26 142.708 142.708 0 0 0-106.729-47.988h-1.257a144.384 144.384 0 0 0-137.355 99.933 142.755 142.755 0 0 0-95.418 69.237 144.43 144.43 0 0 0 17.757 169.262 142.825 142.825 0 0 0 12.241 117.202 144.384 144.384 0 0 0 155.462 69.26A142.755 142.755 0 0 0 541.09 798.44h1.28a144.337 144.337 0 0 0 137.356-100.003 142.732 142.732 0 0 0 95.418-69.237 144.198 144.198 0 0 0-17.78-169.192zM542.022 760.995h-0.163a107.148 107.148 0 0 1-68.562-24.855 69.857 69.857 0 0 0 3.375-1.932l114.06-65.862a18.548 18.548 0 0 0 9.379-16.128v-160.93l48.22 27.833a1.722 1.722 0 0 1 0.932 1.327v133.19a107.497 107.497 0 0 1-107.241 107.357z m-230.68-98.514a107.148 107.148 0 0 1-12.8-71.936l3.398 2.002 114.037 65.885a18.595 18.595 0 0 0 18.758 0l139.264-80.407v55.784a1.745 1.745 0 0 1-0.699 1.374l-115.293 66.56a107.567 107.567 0 0 1-107.334 0 107.497 107.497 0 0 1-39.33-39.285z m-29.998-249.018a106.985 106.985 0 0 1 55.878-47.08l-0.047 3.956v131.84a18.525 18.525 0 0 0 9.356 16.105l139.264 80.407-48.221 27.834a1.745 1.745 0 0 1-1.63 0.14l-115.316-66.63a107.497 107.497 0 0 1-39.284-146.595z m396.102 92.16l-139.24-80.384 48.197-27.834a1.722 1.722 0 0 1 1.629-0.163l115.316 66.583a107.427 107.427 0 0 1-16.593 193.746V521.704a18.525 18.525 0 0 0-9.31-16.057z m47.988-72.215a171.055 171.055 0 0 0-3.374-2.025L608 365.521a18.618 18.618 0 0 0-18.758 0l-139.24 80.384v-55.761c0-0.535 0.232-1.07 0.698-1.396l115.293-66.514a107.38 107.38 0 0 1 159.441 111.174z m-301.638 99.235l-48.22-27.834a1.699 1.699 0 0 1-0.932-1.327V370.316a107.38 107.38 0 0 1 176.059-82.456 97.135 97.135 0 0 0-3.375 1.932l-114.083 65.885a18.572 18.572 0 0 0-9.356 16.105v0.116l-0.093 160.745z m26.205-56.46L512 440.343l62.022 35.817v71.633L512 583.587l-62.022-35.794V476.16z" fill="#FFFFFF" p-id="93828"></path></svg>
    </g>

<g transform="translate(2400, 300)">
<svg xmlns="http://www.w3.org/2000/svg" width="256" height="256" viewBox="0 0 128 128" fill="none">
<circle cx="64" cy="64" r="64" fill="#2F3242"/>
<path d="M51.3954 39.5028C52.3733 39.6812 53.3108 39.033 53.4892 38.055C53.6676 37.0771 53.0194 36.1396 52.0414 35.9612L51.3954 39.5028ZM28.6153 43.5751L30.1748 44.4741L30.1748 44.4741L28.6153 43.5751ZM28.9393 60.9358C29.4332 61.7985 30.5329 62.0976 31.3957 61.6037C32.2585 61.1098 32.5575 60.0101 32.0636 59.1473L28.9393 60.9358ZM37.6935 66.7457C37.025 66.01 35.8866 65.9554 35.1508 66.6239C34.415 67.2924 34.3605 68.4308 35.029 69.1666L37.6935 66.7457ZM53.7489 81.7014L52.8478 83.2597L53.7489 81.7014ZM96.9206 89.515C97.7416 88.9544 97.9526 87.8344 97.3919 87.0135C96.8313 86.1925 95.7113 85.9815 94.8904 86.5422L96.9206 89.515ZM52.0414 35.9612C46.4712 34.9451 41.2848 34.8966 36.9738 35.9376C32.6548 36.9806 29.0841 39.1576 27.0559 42.6762L30.1748 44.4741C31.5693 42.0549 34.1448 40.3243 37.8188 39.4371C41.5009 38.5479 46.1547 38.5468 51.3954 39.5028L52.0414 35.9612ZM27.0559 42.6762C24.043 47.9029 25.2781 54.5399 28.9393 60.9358L32.0636 59.1473C28.6579 53.1977 28.1088 48.0581 30.1748 44.4741L27.0559 42.6762ZM35.029 69.1666C39.6385 74.24 45.7158 79.1355 52.8478 83.2597L54.6499 80.1432C47.8081 76.1868 42.0298 71.5185 37.6935 66.7457L35.029 69.1666ZM52.8478 83.2597C61.344 88.1726 70.0465 91.2445 77.7351 92.3608C85.359 93.4677 92.2744 92.6881 96.9206 89.515L94.8904 86.5422C91.3255 88.9767 85.4902 89.849 78.2524 88.7982C71.0793 87.7567 62.809 84.8612 54.6499 80.1432L52.8478 83.2597ZM105.359 84.9077C105.359 81.4337 102.546 78.6127 99.071 78.6127V82.2127C100.553 82.2127 101.759 83.4166 101.759 84.9077H105.359ZM99.071 78.6127C95.5956 78.6127 92.7831 81.4337 92.7831 84.9077H96.3831C96.3831 83.4166 97.5892 82.2127 99.071 82.2127V78.6127ZM92.7831 84.9077C92.7831 88.3817 95.5956 91.2027 99.071 91.2027V87.6027C97.5892 87.6027 96.3831 86.3988 96.3831 84.9077H92.7831ZM99.071 91.2027C102.546 91.2027 105.359 88.3817 105.359 84.9077H101.759C101.759 86.3988 100.553 87.6027 99.071 87.6027V91.2027Z" fill="#A2ECFB"/>
<path d="M91.4873 65.382C90.8456 66.1412 90.9409 67.2769 91.7002 67.9186C92.4594 68.5603 93.5951 68.465 94.2368 67.7058L91.4873 65.382ZM99.3169 43.6354L97.7574 44.5344L99.3169 43.6354ZM84.507 35.2412C83.513 35.2282 82.6967 36.0236 82.6838 37.0176C82.6708 38.0116 83.4661 38.8279 84.4602 38.8409L84.507 35.2412ZM74.9407 39.8801C75.9127 39.6716 76.5315 38.7145 76.323 37.7425C76.1144 36.7706 75.1573 36.1517 74.1854 36.3603L74.9407 39.8801ZM53.7836 46.3728L54.6847 47.931L53.7836 46.3728ZM25.5491 80.9047C25.6932 81.8883 26.6074 82.5688 27.5911 82.4247C28.5747 82.2806 29.2552 81.3664 29.1111 80.3828L25.5491 80.9047ZM94.2368 67.7058C97.8838 63.3907 100.505 58.927 101.752 54.678C103.001 50.4213 102.9 46.2472 100.876 42.7365L97.7574 44.5344C99.1494 46.9491 99.3603 50.0419 98.2974 53.6644C97.2323 57.2945 94.9184 61.3223 91.4873 65.382L94.2368 67.7058ZM100.876 42.7365C97.9119 37.5938 91.7082 35.335 84.507 35.2412L84.4602 38.8409C91.1328 38.9278 95.7262 41.0106 97.7574 44.5344L100.876 42.7365ZM74.1854 36.3603C67.4362 37.8086 60.0878 40.648 52.8826 44.8146L54.6847 47.931C61.5972 43.9338 68.5948 41.2419 74.9407 39.8801L74.1854 36.3603ZM52.8826 44.8146C44.1366 49.872 36.9669 56.0954 32.1491 62.3927C27.3774 68.63 24.7148 75.2115 25.5491 80.9047L29.1111 80.3828C28.4839 76.1026 30.4747 70.5062 35.0084 64.5802C39.496 58.7143 46.2839 52.7889 54.6847 47.931L52.8826 44.8146Z" fill="#A2ECFB"/>
<path d="M49.0825 87.2295C48.7478 86.2934 47.7176 85.8059 46.7816 86.1406C45.8455 86.4753 45.358 87.5055 45.6927 88.4416L49.0825 87.2295ZM78.5635 96.4256C79.075 95.5732 78.7988 94.4675 77.9464 93.9559C77.0941 93.4443 75.9884 93.7205 75.4768 94.5729L78.5635 96.4256ZM79.5703 85.1795C79.2738 86.1284 79.8027 87.1379 80.7516 87.4344C81.7004 87.7308 82.71 87.2019 83.0064 86.2531L79.5703 85.1795ZM84.3832 64.0673H82.5832H84.3832ZM69.156 22.5301C68.2477 22.1261 67.1838 22.535 66.7799 23.4433C66.3759 24.3517 66.7848 25.4155 67.6931 25.8194L69.156 22.5301ZM45.6927 88.4416C47.5994 93.7741 50.1496 98.2905 53.2032 101.505C56.2623 104.724 59.9279 106.731 63.9835 106.731V103.131C61.1984 103.131 58.4165 101.765 55.8131 99.0249C53.2042 96.279 50.8768 92.2477 49.0825 87.2295L45.6927 88.4416ZM63.9835 106.731C69.8694 106.731 74.8921 102.542 78.5635 96.4256L75.4768 94.5729C72.0781 100.235 68.0122 103.131 63.9835 103.131V106.731ZM83.0064 86.2531C85.0269 79.7864 86.1832 72.1831 86.1832 64.0673H82.5832C82.5832 71.8536 81.4723 79.0919 79.5703 85.1795L83.0064 86.2531ZM86.1832 64.0673C86.1832 54.1144 84.4439 44.922 81.4961 37.6502C78.5748 30.4436 74.3436 24.8371 69.156 22.5301L67.6931 25.8194C71.6364 27.5731 75.3846 32.1564 78.1598 39.0026C80.9086 45.7836 82.5832 54.507 82.5832 64.0673H86.1832Z" fill="#A2ECFB"/>
<path fill-rule="evenodd" clip-rule="evenodd" d="M103.559 84.9077C103.559 82.4252 101.55 80.4127 99.071 80.4127C96.5924 80.4127 94.5831 82.4252 94.5831 84.9077C94.5831 87.3902 96.5924 89.4027 99.071 89.4027C101.55 89.4027 103.559 87.3902 103.559 84.9077V84.9077Z" stroke="#A2ECFB" stroke-width="3.6" stroke-linecap="round"/>
<path fill-rule="evenodd" clip-rule="evenodd" d="M28.8143 89.4027C31.2929 89.4027 33.3023 87.3902 33.3023 84.9077C33.3023 82.4252 31.2929 80.4127 28.8143 80.4127C26.3357 80.4127 24.3264 82.4252 24.3264 84.9077C24.3264 87.3902 26.3357 89.4027 28.8143 89.4027V89.4027V89.4027Z" stroke="#A2ECFB" stroke-width="3.6" stroke-linecap="round"/>
<ellipse cx="63.9835" cy="23.2036" rx="4.48794" ry="4.495" stroke="#A2ECFB" stroke-width="3.6" stroke-linecap="round"/>
<path fill-rule="evenodd" clip-rule="evenodd" d="M64.8501 68.0857C62.6341 68.5652 60.451 67.1547 59.9713 64.9353C59.4934 62.7159 60.9007 60.5293 63.1167 60.0489C65.3326 59.5693 67.5157 60.9798 67.9954 63.1992C68.4742 65.4186 67.066 67.6052 64.8501 68.0857Z" fill="#A2ECFB"/>
</svg>
    </g>

<g transform="translate(2700, 300)">
        
    </g>

<g transform="translate(3000, 300)">
        
    </g>
</svg>
